<svg width="6" height="12" viewBox="0 0 6 12" fill="none" xmlns="http://www.w3.org/2000/svg">
<path id="Vector" fill-rule="evenodd" clip-rule="evenodd" d="M5.60981 0.800145C5.64791 0.838154 5.67815 0.883308 5.69878 0.93302C5.7194 0.982731 5.73002 1.03602 5.73002 1.08985C5.73002 1.14367 5.7194 1.19696 5.69878 1.24667C5.67815 1.29638 5.64791 1.34154 5.60981 1.37955L0.988498 6.00004L5.60981 10.6205C5.68664 10.6974 5.72981 10.8016 5.72981 10.9102C5.72981 11.0189 5.68664 11.1231 5.60981 11.1999C5.53298 11.2768 5.42877 11.3199 5.32011 11.3199C5.21145 11.3199 5.10724 11.2768 5.03041 11.1999L0.120213 6.28974C0.0821068 6.25173 0.051874 6.20658 0.0312459 6.15687C0.0106178 6.10715 0 6.05386 0 6.00004C0 5.94622 0.0106178 5.89292 0.0312459 5.84321C0.051874 5.7935 0.0821068 5.74835 0.120213 5.71034L5.03041 0.800145C5.06842 0.762039 5.11357 0.731806 5.16328 0.711178C5.21299 0.69055 5.26629 0.679932 5.32011 0.679932C5.37393 0.679932 5.42722 0.69055 5.47693 0.711178C5.52665 0.731806 5.5718 0.762039 5.60981 0.800145Z" fill="black"/>
</svg>
