<svg width="6" height="12" viewBox="0 0 6 12" fill="none" xmlns="http://www.w3.org/2000/svg">
<path id="Vector" fill-rule="evenodd" clip-rule="evenodd" d="M0.390232 0.800206C0.428242 0.7621 0.473395 0.731867 0.523107 0.711239C0.572819 0.690611 0.626112 0.679993 0.679934 0.679993C0.733755 0.679993 0.787048 0.690611 0.83676 0.711239C0.886472 0.731867 0.931626 0.7621 0.969635 0.800206L5.87983 5.7104C5.91793 5.74841 5.94817 5.79356 5.96879 5.84327C5.98942 5.89299 6.00004 5.94628 6.00004 6.0001C6.00004 6.05392 5.98942 6.10721 5.96879 6.15693C5.94817 6.20664 5.91793 6.25179 5.87983 6.2898L0.969635 11.2C0.892802 11.2768 0.788593 11.32 0.679934 11.32C0.571274 11.32 0.467066 11.2768 0.390232 11.2C0.313399 11.1232 0.270234 11.019 0.270234 10.9103C0.270234 10.8016 0.313399 10.6974 0.390232 10.6206L5.01154 6.0001L0.390232 1.37961C0.352126 1.3416 0.321893 1.29645 0.301265 1.24673C0.280637 1.19702 0.27002 1.14373 0.27002 1.08991C0.27002 1.03609 0.280637 0.982792 0.301265 0.933081C0.321893 0.883369 0.352126 0.838215 0.390232 0.800206Z" fill="black"/>
</svg>
